<svg xmlns:xlink="http://www.w3.org/1999/xlink" xmlns="http://www.w3.org/2000/svg" class="h-6 w-6" viewBox="0 0 24 24" fill="none" width="60" height="60"><path d="M6 8a2 2 0 0 1 2-2h1a2 2 0 0 1 2 2v1a2 2 0 0 1-2 2H8a2 2 0 0 1-2-2V8ZM6 15a2 2 0 0 1 2-2h1a2 2 0 0 1 2 2v1a2 2 0 0 1-2 2H8a2 2 0 0 1-2-2v-1Z" class="fill-purple-400 group-hover:fill-purple-500 dark:group-hover:fill-purple-300 dark:fill-slate-600" fill="#C084FC"></path><path d="M13 8a2 2 0 0 1 2-2h1a2 2 0 0 1 2 2v1a2 2 0 0 1-2 2h-1a2 2 0 0 1-2-2V8Z" class="fill-purple-200 group-hover:fill-purple-300 dark:group-hover:fill-white dark:fill-slate-400" fill="#E9D5FF"></path><path d="M13 15a2 2 0 0 1 2-2h1a2 2 0 0 1 2 2v1a2 2 0 0 1-2 2h-1a2 2 0 0 1-2-2v-1Z" class="fill-purple-400 group-hover:fill-purple-500 dark:group-hover:fill-purple-300 dark:fill-slate-600" fill="#C084FC"></path></svg>